<svg xmlns="http://www.w3.org/2000/svg" width="512" height="512" viewBox="0 0 512 512" version="1.1">
	<path d="M 410.760 87.750 C 407.410 90.912, 368.286 128.678, 323.818 171.674 C 264.709 228.826, 242.166 250.024, 239.987 250.503 C 234.347 251.742, 230.742 249.453, 218.866 237.091 C 201.815 219.344, 200.513 219.388, 181.172 238.381 C 173.824 245.596, 167.179 252.715, 166.406 254.200 C 164.698 257.480, 164.649 261.749, 166.285 264.662 C 166.953 265.851, 181.634 281.469, 198.908 299.368 C 231.491 333.127, 232.468 333.935, 239.010 332.498 C 241.238 332.009, 269.673 305.087, 348.492 228.844 C 465.934 115.240, 459.323 122.369, 455.133 113.838 C 453.961 111.452, 447.040 103.304, 439.751 95.732 L 426.500 81.964 421.676 81.982 C 417.185 81.999, 416.430 82.398, 410.760 87.750 M 218 85.051 C 197.871 87.552, 178.556 93.244, 160.500 101.996 C 146.286 108.886, 138.677 113.689, 126.438 123.498 C 97.505 146.688, 75.294 181.386, 66.061 217.820 C 60.292 240.584, 59.420 272.649, 63.953 295.379 C 75.681 354.199, 116.125 403.135, 171.500 425.509 C 183.422 430.326, 203.937 435.498, 217.257 437.044 C 233.072 438.880, 258.256 437.778, 273.569 434.579 C 336.209 421.496, 385.532 377.461, 405.950 316.391 C 412.241 297.577, 414.309 284.052, 414.346 261.500 C 414.381 240.600, 413.087 230.787, 407.828 212.040 C 404.777 201.166, 402.224 197, 398.611 197 C 397.275 197, 389.222 204.487, 375.265 218.705 L 353.959 240.409 353.653 260.955 C 353.389 278.631, 353.025 282.687, 351.048 290 C 339.575 332.434, 306.986 364.578, 264.797 375.071 C 254.047 377.745, 232.366 378.721, 220.886 377.047 C 204.817 374.704, 185.592 367.171, 171.500 357.696 C 163.710 352.458, 148.961 338.132, 143.500 330.500 C 128.200 309.116, 121 287.036, 121 261.500 C 121 200.489, 166.397 150.739, 227.259 145.054 C 253.692 142.585, 279.909 149.160, 301.619 163.704 C 312.956 171.299, 310.570 171.569, 321.498 161.455 C 326.821 156.530, 334.924 149.125, 339.507 145 C 347.395 137.899, 354 130.604, 354 128.992 C 354 127.435, 346.086 120.695, 337.527 114.963 C 315.529 100.229, 291.874 90.765, 266 86.347 C 255.445 84.544, 228.035 83.804, 218 85.051" stroke="none" fill="black" fill-rule="evenodd"/>
</svg>